<?xml version="1.0" encoding="UTF-8" standalone="no"?>
<svg
   width="36px"
   height="36px"
   viewBox="0 0 36 36"
   aria-hidden="true"
   role="img"
   class="iconify iconify--twemoji"
   preserveAspectRatio="xMidYMid meet"
   version="1.1"
   id="svg26"
   sodipodi:docname="plainotepad.svg"
   inkscape:version="1.2.1 (9c6d41e410, 2022-07-14, custom)"
   xmlns:inkscape="http://www.inkscape.org/namespaces/inkscape"
   xmlns:sodipodi="http://sodipodi.sourceforge.net/DTD/sodipodi-0.dtd"
   xmlns="http://www.w3.org/2000/svg"
   xmlns:svg="http://www.w3.org/2000/svg">
  <defs
     id="defs30" />
  <sodipodi:namedview
     id="namedview28"
     pagecolor="#ffffff"
     bordercolor="#000000"
     borderopacity="0.25"
     inkscape:showpageshadow="2"
     inkscape:pageopacity="0.0"
     inkscape:pagecheckerboard="0"
     inkscape:deskcolor="#d1d1d1"
     showgrid="false"
     inkscape:zoom="10.791666"
     inkscape:cx="3.6138998"
     inkscape:cy="18.671816"
     inkscape:window-width="1920"
     inkscape:window-height="956"
     inkscape:window-x="0"
     inkscape:window-y="30"
     inkscape:window-maximized="1"
     inkscape:current-layer="svg26" />
  <path
     fill="#66757F"
     d="M27.815 4h1.996v2.391h-1.996z"
     id="path2" />
  <path
     fill="#55ACEE"
     d="M29 4H9a4 4 0 0 0-4 4v24a4 4 0 0 0 4 4h20a4 4 0 0 0 4-4V8a4 4 0 0 0-4-4z"
     id="path4"
     style="fill:#b2b2b2;fill-opacity:1" />
  <path
     fill="#CCD6DD"
     d="M27 4H7a4 4 0 0 0-4 4v24a4 4 0 0 0 4 4h20a4 4 0 0 0 4-4V8a4 4 0 0 0-4-4z"
     id="path6"
     style="fill:#ececec" />
  <path
     fill="#99AAB5"
     d="M28 15a1 1 0 0 1-1 1H7a1 1 0 1 1 0-2h20a1 1 0 0 1 1 1zm0 5a1 1 0 0 1-1 1H7a1 1 0 1 1 0-2h20a1 1 0 0 1 1 1zm0 5a1 1 0 0 1-1 1H7a1 1 0 1 1 0-2h20a1 1 0 0 1 1 1zm-8 5a1 1 0 0 1-1 1H7a1 1 0 1 1 0-2h12a1 1 0 0 1 1 1z"
     id="path8"
     style="fill:#bdbdbd;fill-opacity:1" />
  <path
     fill="#292F33"
     d="M7.836 8.731c-.702 0-1.271-.666-1.271-1.489c0-.822.569-1.489 1.271-1.489c.701 0 1.27.667 1.27 1.489c0 .822-.569 1.489-1.27 1.489z"
     id="path10"
     style="fill:#c1c1c1;fill-opacity:1" />
  <path
     fill="#66757F"
     d="M8.543 7.083c-.055-.48-.374-.792-.729-1.017c-.485-.307-1-1.008-1-1.877c0-1.104.671-2.095 1.5-2.095s1.5.905 1.5 1.905h1.996c-.021-2-1.575-3.821-3.496-3.821c-1.934 0-3.5 1.819-3.5 4.005c0 1.853 1.045 3.371 2.569 3.926c.76.276 1.224-.447 1.16-1.026z"
     id="path12"
     style="fill:#68ace1;fill-opacity:1" />
  <path
     fill="#292F33"
     d="M13.836 8.731c-.702 0-1.271-.666-1.271-1.489c0-.822.569-1.489 1.271-1.489c.701 0 1.27.667 1.27 1.489c0 .822-.569 1.489-1.27 1.489z"
     id="path14"
     style="fill:#c1c1c1;fill-opacity:1" />
  <path
     fill="#66757F"
     d="M14.543 7.083c-.055-.48-.374-.792-.729-1.017c-.485-.307-1-1.008-1-1.877c0-1.104.671-2.095 1.5-2.095s1.5.905 1.5 1.905h1.996c-.02-2-1.575-3.821-3.496-3.821c-1.934 0-3.5 1.819-3.5 4.005c0 1.853 1.045 3.371 2.569 3.926c.76.276 1.224-.447 1.16-1.026z"
     id="path16"
     style="fill:#68ace1;fill-opacity:1" />
  <path
     fill="#292F33"
     d="M19.836 8.731c-.702 0-1.271-.666-1.271-1.489c0-.822.569-1.489 1.271-1.489c.701 0 1.271.667 1.271 1.489c-.001.822-.57 1.489-1.271 1.489z"
     id="path18"
     style="fill:#c1c1c1;fill-opacity:1" />
  <path
     fill="#66757F"
     d="M20.543 7.083c-.055-.48-.374-.792-.728-1.017c-.485-.307-1-1.008-1-1.877c0-1.104.671-2.095 1.5-2.095s1.5.905 1.5 1.905h1.996c-.02-2-1.575-3.821-3.496-3.821c-1.934 0-3.5 1.819-3.5 4.005c0 1.853 1.045 3.371 2.569 3.926c.759.276 1.223-.447 1.159-1.026z"
     id="path20"
     style="fill:#68ace1;fill-opacity:1" />
  <path
     fill="#292F33"
     d="M25.836 8.731c-.702 0-1.271-.666-1.271-1.489c0-.822.569-1.489 1.271-1.489c.701 0 1.271.667 1.271 1.489c-.001.822-.57 1.489-1.271 1.489z"
     id="path22"
     style="fill:#c1c1c1;fill-opacity:1" />
  <path
     fill="#66757F"
     d="M26.543 7.083c-.055-.48-.374-.792-.728-1.017c-.485-.307-1-1.008-1-1.877c0-1.104.671-2.095 1.5-2.095s1.5.905 1.5 1.905h1.996c-.02-2-1.575-3.821-3.496-3.821c-1.934 0-3.5 1.819-3.5 4.005c0 1.853 1.045 3.371 2.569 3.926c.759.276 1.223-.447 1.159-1.026z"
     id="path24"
     style="fill:#68ace1;fill-opacity:1" />
</svg>
